<svg width="326" height="34" viewBox="0 0 326 34" fill="none" xmlns="http://www.w3.org/2000/svg">
<path d="M321.02 0.845703H4.97866C2.56989 0.845703 0.617188 3.52052 0.617188 6.82007V27.1798C0.617188 30.4794 2.56989 33.1542 4.97866 33.1542H321.02C323.429 33.1542 325.382 30.4794 325.382 27.1798V6.82007C325.382 3.52052 323.429 0.845703 321.02 0.845703Z" fill="url(#paint0_linear_240_17268)"/>
<path d="M313.589 34H12.4106C5.56598 34 0 26.3747 0 17C0 7.62524 5.56739 0 12.4106 0H313.589C320.434 0 326 7.62621 326 17C326 26.3738 320.433 34 313.589 34ZM12.4106 1.69246C6.24832 1.69246 1.23555 8.55508 1.23555 17C1.23555 25.4449 6.2455 32.3085 12.4106 32.3085H313.589C319.752 32.3085 324.765 25.4459 324.765 17C324.765 8.55412 319.752 1.69246 313.589 1.69246H12.4106Z" fill="#65290E"/>
<path d="M12.4541 28.4751C11.3475 28.489 10.25 28.2025 9.22473 27.6321C8.19949 27.0617 7.26692 26.2187 6.48087 25.1518C5.69482 24.0849 5.07086 22.8152 4.64505 21.4161C4.21924 20.0171 4 18.5163 4 17.0005C4 15.4847 4.21924 13.9839 4.64505 12.5848C5.07086 11.1858 5.69482 9.91613 6.48087 8.84923C7.26692 7.78233 8.19949 6.93932 9.22473 6.36891C10.25 5.79849 11.3475 5.51196 12.4541 5.52587H312.992C315.201 5.55364 317.312 6.77479 318.866 8.92368C320.421 11.0726 321.293 13.9754 321.293 17.0005C321.293 20.0256 320.421 22.9284 318.866 25.0773C317.312 27.2262 315.201 28.4473 312.992 28.4751H12.4541Z" fill="#FFDDA0"/>
<path d="M313.269 6.71659C315.248 6.74286 317.139 7.83791 318.531 9.76364C319.923 11.6894 320.704 14.2901 320.704 17.0004C320.704 19.7107 319.923 22.3114 318.531 24.2371C317.139 26.1629 315.248 27.2579 313.269 27.2842H12.731C10.7525 27.2579 8.86154 26.1629 7.46926 24.2371C6.07698 22.3114 5.29593 19.7107 5.29593 17.0004C5.29593 14.2901 6.07698 11.6894 7.46926 9.76364C8.86154 7.83791 10.7525 6.74286 12.731 6.71659H313.269ZM313.269 4.33398H12.731C7.63215 4.33398 3.4873 10.0164 3.4873 16.996C3.49066 20.3528 4.46563 23.5708 6.19843 25.9444C7.93123 28.318 10.2805 29.6535 12.731 29.6581H313.269C318.367 29.6581 322.513 23.9766 322.513 16.996C322.513 10.0155 318.365 4.33398 313.269 4.33398Z" fill="#65290E"/>
<path d="M5.02763 12.3137C5.01235 9.01086 7.66932 6.31675 10.9721 6.28619L35.8718 6.05578C39.1964 6.02502 41.9121 8.7035 41.9272 12.0282L41.9725 21.9727C41.9877 25.297 39.297 28 35.9726 28H11.0725C7.76964 28 5.08786 25.3306 5.07258 22.0278L5.02763 12.3137Z" fill="url(#paint1_linear_240_17268)"/>
<defs>
<linearGradient id="paint0_linear_240_17268" x1="162.999" y1="0.239665" x2="162.999" y2="37.9088" gradientUnits="userSpaceOnUse">
<stop stop-color="#A46016"/>
<stop offset="1"/>
</linearGradient>
<linearGradient id="paint1_linear_240_17268" x1="55.0631" y1="-21.2292" x2="-6.60388" y2="-17.714" gradientUnits="userSpaceOnUse">
<stop stop-color="#FF5F6D"/>
<stop offset="1" stop-color="#FFC371"/>
</linearGradient>
</defs>
</svg>
