<svg width="27" height="26" viewBox="0 0 27 26" fill="none" xmlns="http://www.w3.org/2000/svg">
<path d="M9.83768 11.8848C12.2525 11.8848 14.21 9.94991 14.21 7.56303C14.21 5.17616 12.2525 3.24121 9.83768 3.24121C7.4229 3.24121 5.46533 5.17616 5.46533 7.56303C5.46533 9.94991 7.4229 11.8848 9.83768 11.8848Z" stroke="#52663D" stroke-width="2" stroke-linecap="round" stroke-linejoin="round"/>
<path d="M3.2793 22.6898V20.5289C3.2793 19.3826 3.73995 18.2834 4.55993 17.4729C5.3799 16.6624 6.49202 16.207 7.65164 16.207H12.024C13.1836 16.207 14.2957 16.6624 15.1157 17.4729C15.9357 18.2834 16.3963 19.3826 16.3963 20.5289V22.6898" stroke="#52663D" stroke-width="2" stroke-linecap="round" stroke-linejoin="round"/>
<path d="M17.4893 3.38184C18.4298 3.61986 19.2634 4.16052 19.8587 4.91858C20.454 5.67664 20.7771 6.60897 20.7771 7.5686C20.7771 8.52823 20.454 9.46056 19.8587 10.2186C19.2634 10.9767 18.4298 11.5173 17.4893 11.7554" stroke="#52663D" stroke-width="2" stroke-linecap="round" stroke-linejoin="round"/>
<path d="M22.9548 22.6893V20.5284C22.9492 19.5745 22.6246 18.6493 22.0314 17.8968C21.4383 17.1444 20.6099 16.6071 19.6755 16.3687" stroke="#52663D" stroke-width="2" stroke-linecap="round" stroke-linejoin="round"/>
</svg>
