<svg width="29" height="27" viewBox="0 0 29 27" fill="none" xmlns="http://www.w3.org/2000/svg">
<path d="M9.8378 12.816C12.2526 12.816 14.2101 10.8811 14.2101 8.49418C14.2101 6.10731 12.2526 4.17236 9.8378 4.17236C7.42302 4.17236 5.46545 6.10731 5.46545 8.49418C5.46545 10.8811 7.42302 12.816 9.8378 12.816Z" stroke="#52663D" stroke-width="2" stroke-linecap="round" stroke-linejoin="round"/>
<path d="M3.27924 23.6204V21.4595C3.27924 20.3133 3.73989 19.214 4.55987 18.4035C5.37984 17.593 6.49196 17.1377 7.65158 17.1377H12.0239C13.1835 17.1377 14.2957 17.593 15.1156 18.4035C15.9356 19.214 16.3963 20.3133 16.3963 21.4595V23.6204" stroke="#52663D" stroke-width="2" stroke-linecap="round" stroke-linejoin="round"/>
<path d="M17.4894 4.31274C18.4299 4.55077 19.2635 5.09143 19.8588 5.84949C20.4541 6.60754 20.7772 7.53988 20.7772 8.49951C20.7772 9.45913 20.4541 10.3915 19.8588 11.1495C19.2635 11.9076 18.4299 12.4482 17.4894 12.6863" stroke="#52663D" stroke-width="2" stroke-linecap="round" stroke-linejoin="round"/>
<path d="M23.4894 4.31274C24.4299 4.55077 25.2635 5.09143 25.8588 5.84949C26.4541 6.60754 26.7772 7.53988 26.7772 8.49951C26.7772 9.45913 26.4541 10.3915 25.8588 11.1495C25.2635 11.9076 24.4299 12.4482 23.4894 12.6863" stroke="#52663D" stroke-width="2" stroke-linecap="round" stroke-linejoin="round"/>
<path d="M21.9548 23.6205V21.4596C21.9492 20.5057 21.6246 19.5804 21.0314 18.828C20.4383 18.0756 19.6099 17.5383 18.6755 17.2998" stroke="#52663D" stroke-width="2" stroke-linecap="round" stroke-linejoin="round"/>
<path d="M27.9548 23.6205V21.4596C27.9492 20.5057 27.6246 19.5804 27.0314 18.828C26.4383 18.0756 25.6099 17.5383 24.6755 17.2998" stroke="#52663D" stroke-width="2" stroke-linecap="round" stroke-linejoin="round"/>
</svg>
